M48
INCH,TZ
T1C0.0157
T2C0.0281
T3C0.0394
T4C0.0400
T5C0.1200
%
G90
G05
T1
X60288Y-31331
T2
X55700Y-33750
X56700Y-34750
X57700Y-33750
T3
X63690Y-47250
X63690Y-48250
X63690Y-49250
X63690Y-50250
X63690Y-51250
X63690Y-52250
X68690Y-47250
X68690Y-48250
X68690Y-49250
X68690Y-50250
X68690Y-51250
X68690Y-52250
T4
X52200Y-29250
X52200Y-30250
X52200Y-31250
X52200Y-32250
X52200Y-33250
X52200Y-34250
X52200Y-35250
X52200Y-36250
X52200Y-37850
X52200Y-38850
X52200Y-39850
X52200Y-40850
X52200Y-41850
X52200Y-42850
X52200Y-43850
X52200Y-44850
X52200Y-45850
X52200Y-46850
X71200Y-29250
X71200Y-30250
X71200Y-31250
X71200Y-32250
X71200Y-33250
X71200Y-34250
X71200Y-36250
X71200Y-37250
X71200Y-38250
X71200Y-39250
X71200Y-40250
X71200Y-41250
X71200Y-42250
X71200Y-43250
T5
X52200Y-49250
X58200Y-28250
X69200Y-28250
X71200Y-45250
T0
M30
