G04 #@! TF.GenerationSoftware,KiCad,Pcbnew,(6.0.5)*
G04 #@! TF.CreationDate,2022-05-09T16:29:05-07:00*
G04 #@! TF.ProjectId,KiCad Project,4b694361-6420-4507-926f-6a6563742e6b,rev?*
G04 #@! TF.SameCoordinates,Original*
G04 #@! TF.FileFunction,Soldermask,Bot*
G04 #@! TF.FilePolarity,Negative*
%FSLAX46Y46*%
G04 Gerber Fmt 4.6, Leading zero omitted, Abs format (unit mm)*
G04 Created by KiCad (PCBNEW (6.0.5)) date 2022-05-09 16:29:05*
%MOMM*%
%LPD*%
G01*
G04 APERTURE LIST*
%ADD10O,2.032000X1.727200*%
%ADD11C,4.064000*%
%ADD12R,1.222000X1.222000*%
%ADD13C,1.222000*%
%ADD14R,1.700000X1.700000*%
%ADD15O,1.700000X1.700000*%
G04 APERTURE END LIST*
D10*
G04 #@! TO.C,PORT1*
X180848000Y-109855000D03*
X180848000Y-107315000D03*
X180848000Y-104775000D03*
X180848000Y-102235000D03*
X180848000Y-99695000D03*
X180848000Y-97155000D03*
X180848000Y-94615000D03*
X180848000Y-92075000D03*
G04 #@! TD*
G04 #@! TO.C,PORT2*
X180848000Y-86995000D03*
X180848000Y-84455000D03*
X180848000Y-81915000D03*
X180848000Y-79375000D03*
X180848000Y-76835000D03*
X180848000Y-74295000D03*
G04 #@! TD*
G04 #@! TO.C,PORT3*
X132588000Y-118999000D03*
X132588000Y-116459000D03*
X132588000Y-113919000D03*
X132588000Y-111379000D03*
X132588000Y-108839000D03*
X132588000Y-106299000D03*
X132588000Y-103759000D03*
X132588000Y-101219000D03*
X132588000Y-98679000D03*
X132588000Y-96139000D03*
G04 #@! TD*
G04 #@! TO.C,PORT4*
X132588000Y-92075000D03*
X132588000Y-89535000D03*
X132588000Y-86995000D03*
X132588000Y-84455000D03*
X132588000Y-81915000D03*
X132588000Y-79375000D03*
X132588000Y-76835000D03*
X132588000Y-74295000D03*
G04 #@! TD*
D11*
G04 #@! TO.C,P5*
X180848000Y-114935000D03*
G04 #@! TD*
G04 #@! TO.C,P6*
X175768000Y-71755000D03*
G04 #@! TD*
G04 #@! TO.C,P7*
X132588000Y-125095000D03*
G04 #@! TD*
G04 #@! TO.C,P8*
X147828000Y-71755000D03*
G04 #@! TD*
D12*
G04 #@! TO.C,VR1*
X146558000Y-85725000D03*
D13*
X144018000Y-88265000D03*
X141478000Y-85725000D03*
G04 #@! TD*
D14*
G04 #@! TO.C,J2*
X161773000Y-132715000D03*
D15*
X161773000Y-130175000D03*
X161773000Y-127635000D03*
X161773000Y-125095000D03*
X161773000Y-122555000D03*
X161773000Y-120015000D03*
G04 #@! TD*
D14*
G04 #@! TO.C,J1*
X174473000Y-132715000D03*
D15*
X174473000Y-130175000D03*
X174473000Y-127635000D03*
X174473000Y-125095000D03*
X174473000Y-122555000D03*
X174473000Y-120015000D03*
G04 #@! TD*
M02*
