G04 #@! TF.GenerationSoftware,KiCad,Pcbnew,(6.0.5)*
G04 #@! TF.CreationDate,2022-05-09T16:29:05-07:00*
G04 #@! TF.ProjectId,KiCad Project,4b694361-6420-4507-926f-6a6563742e6b,rev?*
G04 #@! TF.SameCoordinates,Original*
G04 #@! TF.FileFunction,Legend,Top*
G04 #@! TF.FilePolarity,Positive*
%FSLAX46Y46*%
G04 Gerber Fmt 4.6, Leading zero omitted, Abs format (unit mm)*
G04 Created by KiCad (PCBNEW (6.0.5)) date 2022-05-09 16:29:05*
%MOMM*%
%LPD*%
G01*
G04 APERTURE LIST*
%ADD10C,0.125000*%
%ADD11C,0.150000*%
%ADD12C,0.300000*%
%ADD13C,0.098425*%
%ADD14C,0.127000*%
%ADD15C,0.200000*%
%ADD16C,0.120000*%
%ADD17O,2.032000X1.727200*%
%ADD18C,4.064000*%
G04 APERTURE END LIST*
D10*
X159436571Y-120098333D02*
X159460380Y-120122142D01*
X159484190Y-120193571D01*
X159484190Y-120241190D01*
X159460380Y-120312619D01*
X159412761Y-120360238D01*
X159365142Y-120384047D01*
X159269904Y-120407857D01*
X159198476Y-120407857D01*
X159103238Y-120384047D01*
X159055619Y-120360238D01*
X159008000Y-120312619D01*
X158984190Y-120241190D01*
X158984190Y-120193571D01*
X159008000Y-120122142D01*
X159031809Y-120098333D01*
X159460380Y-119907857D02*
X159484190Y-119836428D01*
X159484190Y-119717380D01*
X159460380Y-119669761D01*
X159436571Y-119645952D01*
X159388952Y-119622142D01*
X159341333Y-119622142D01*
X159293714Y-119645952D01*
X159269904Y-119669761D01*
X159246095Y-119717380D01*
X159222285Y-119812619D01*
X159198476Y-119860238D01*
X159174666Y-119884047D01*
X159127047Y-119907857D01*
X159079428Y-119907857D01*
X159031809Y-119884047D01*
X159008000Y-119860238D01*
X158984190Y-119812619D01*
X158984190Y-119693571D01*
X159008000Y-119622142D01*
D11*
X149095995Y-85223622D02*
X149000494Y-85175871D01*
X148857244Y-85175871D01*
X148713993Y-85223622D01*
X148618492Y-85319122D01*
X148570742Y-85414623D01*
X148522992Y-85605624D01*
X148522992Y-85748875D01*
X148570742Y-85939876D01*
X148618492Y-86035376D01*
X148713993Y-86130877D01*
X148857244Y-86178627D01*
X148952744Y-86178627D01*
X149095995Y-86130877D01*
X149143745Y-86083127D01*
X149143745Y-85748875D01*
X148952744Y-85748875D01*
X149573498Y-86178627D02*
X149573498Y-85175871D01*
X150146501Y-86178627D01*
X150146501Y-85175871D01*
X150624004Y-86178627D02*
X150624004Y-85175871D01*
X150862756Y-85175871D01*
X151006006Y-85223622D01*
X151101507Y-85319122D01*
X151149257Y-85414623D01*
X151197008Y-85605624D01*
X151197008Y-85748875D01*
X151149257Y-85939876D01*
X151101507Y-86035376D01*
X151006006Y-86130877D01*
X150862756Y-86178627D01*
X150624004Y-86178627D01*
D10*
X159197285Y-132881666D02*
X159197285Y-133048333D01*
X159459190Y-133048333D02*
X158959190Y-133048333D01*
X158959190Y-132810238D01*
X159435380Y-132643571D02*
X159459190Y-132572142D01*
X159459190Y-132453095D01*
X159435380Y-132405476D01*
X159411571Y-132381666D01*
X159363952Y-132357857D01*
X159316333Y-132357857D01*
X159268714Y-132381666D01*
X159244904Y-132405476D01*
X159221095Y-132453095D01*
X159197285Y-132548333D01*
X159173476Y-132595952D01*
X159149666Y-132619761D01*
X159102047Y-132643571D01*
X159054428Y-132643571D01*
X159006809Y-132619761D01*
X158983000Y-132595952D01*
X158959190Y-132548333D01*
X158959190Y-132429285D01*
X158983000Y-132357857D01*
X159460380Y-123185952D02*
X159484190Y-123114523D01*
X159484190Y-122995476D01*
X159460380Y-122947857D01*
X159436571Y-122924047D01*
X159388952Y-122900238D01*
X159341333Y-122900238D01*
X159293714Y-122924047D01*
X159269904Y-122947857D01*
X159246095Y-122995476D01*
X159222285Y-123090714D01*
X159198476Y-123138333D01*
X159174666Y-123162142D01*
X159127047Y-123185952D01*
X159079428Y-123185952D01*
X159031809Y-123162142D01*
X159008000Y-123138333D01*
X158984190Y-123090714D01*
X158984190Y-122971666D01*
X159008000Y-122900238D01*
X159484190Y-122685952D02*
X158984190Y-122685952D01*
X158984190Y-122566904D01*
X159008000Y-122495476D01*
X159055619Y-122447857D01*
X159103238Y-122424047D01*
X159198476Y-122400238D01*
X159269904Y-122400238D01*
X159365142Y-122424047D01*
X159412761Y-122447857D01*
X159460380Y-122495476D01*
X159484190Y-122566904D01*
X159484190Y-122685952D01*
X158984190Y-122090714D02*
X158984190Y-122043095D01*
X159008000Y-121995476D01*
X159031809Y-121971666D01*
X159079428Y-121947857D01*
X159174666Y-121924047D01*
X159293714Y-121924047D01*
X159388952Y-121947857D01*
X159436571Y-121971666D01*
X159460380Y-121995476D01*
X159484190Y-122043095D01*
X159484190Y-122090714D01*
X159460380Y-122138333D01*
X159436571Y-122162142D01*
X159388952Y-122185952D01*
X159293714Y-122209761D01*
X159174666Y-122209761D01*
X159079428Y-122185952D01*
X159031809Y-122162142D01*
X159008000Y-122138333D01*
X158984190Y-122090714D01*
X176534000Y-128269952D02*
X176510190Y-128317571D01*
X176510190Y-128389000D01*
X176534000Y-128460428D01*
X176581619Y-128508047D01*
X176629238Y-128531857D01*
X176724476Y-128555666D01*
X176795904Y-128555666D01*
X176891142Y-128531857D01*
X176938761Y-128508047D01*
X176986380Y-128460428D01*
X177010190Y-128389000D01*
X177010190Y-128341380D01*
X176986380Y-128269952D01*
X176962571Y-128246142D01*
X176795904Y-128246142D01*
X176795904Y-128341380D01*
X177010190Y-128031857D02*
X176510190Y-128031857D01*
X177010190Y-127746142D01*
X176510190Y-127746142D01*
X177010190Y-127508047D02*
X176510190Y-127508047D01*
X176510190Y-127389000D01*
X176534000Y-127317571D01*
X176581619Y-127269952D01*
X176629238Y-127246142D01*
X176724476Y-127222333D01*
X176795904Y-127222333D01*
X176891142Y-127246142D01*
X176938761Y-127269952D01*
X176986380Y-127317571D01*
X177010190Y-127389000D01*
X177010190Y-127508047D01*
X159341333Y-128004047D02*
X159341333Y-127765952D01*
X159484190Y-128051666D02*
X158984190Y-127885000D01*
X159484190Y-127718333D01*
X159436571Y-127265952D02*
X159460380Y-127289761D01*
X159484190Y-127361190D01*
X159484190Y-127408809D01*
X159460380Y-127480238D01*
X159412761Y-127527857D01*
X159365142Y-127551666D01*
X159269904Y-127575476D01*
X159198476Y-127575476D01*
X159103238Y-127551666D01*
X159055619Y-127527857D01*
X159008000Y-127480238D01*
X158984190Y-127408809D01*
X158984190Y-127361190D01*
X159008000Y-127289761D01*
X159031809Y-127265952D01*
X159008000Y-124964047D02*
X158984190Y-125011666D01*
X158984190Y-125083095D01*
X159008000Y-125154523D01*
X159055619Y-125202142D01*
X159103238Y-125225952D01*
X159198476Y-125249761D01*
X159269904Y-125249761D01*
X159365142Y-125225952D01*
X159412761Y-125202142D01*
X159460380Y-125154523D01*
X159484190Y-125083095D01*
X159484190Y-125035476D01*
X159460380Y-124964047D01*
X159436571Y-124940238D01*
X159269904Y-124940238D01*
X159269904Y-125035476D01*
D11*
X137092992Y-85175871D02*
X137427244Y-86178627D01*
X137761496Y-85175871D01*
X138668751Y-86083127D02*
X138621001Y-86130877D01*
X138477750Y-86178627D01*
X138382249Y-86178627D01*
X138238998Y-86130877D01*
X138143498Y-86035376D01*
X138095748Y-85939876D01*
X138047997Y-85748875D01*
X138047997Y-85605624D01*
X138095748Y-85414623D01*
X138143498Y-85319122D01*
X138238998Y-85223622D01*
X138382249Y-85175871D01*
X138477750Y-85175871D01*
X138621001Y-85223622D01*
X138668751Y-85271372D01*
X139671507Y-86083127D02*
X139623757Y-86130877D01*
X139480506Y-86178627D01*
X139385005Y-86178627D01*
X139241754Y-86130877D01*
X139146254Y-86035376D01*
X139098504Y-85939876D01*
X139050753Y-85748875D01*
X139050753Y-85605624D01*
X139098504Y-85414623D01*
X139146254Y-85319122D01*
X139241754Y-85223622D01*
X139385005Y-85175871D01*
X139480506Y-85175871D01*
X139623757Y-85223622D01*
X139671507Y-85271372D01*
D10*
X176510190Y-133262619D02*
X177010190Y-133095952D01*
X176510190Y-132929285D01*
X177010190Y-132762619D02*
X176510190Y-132762619D01*
X177010190Y-132524523D02*
X176510190Y-132524523D01*
X177010190Y-132238809D01*
X176510190Y-132238809D01*
X177010190Y-130484523D02*
X177010190Y-130770238D01*
X177010190Y-130627380D02*
X176510190Y-130627380D01*
X176581619Y-130675000D01*
X176629238Y-130722619D01*
X176653047Y-130770238D01*
X176510190Y-130341666D02*
X177010190Y-130175000D01*
X176510190Y-130008333D01*
X176724476Y-129770238D02*
X176700666Y-129817857D01*
X176676857Y-129841666D01*
X176629238Y-129865476D01*
X176605428Y-129865476D01*
X176557809Y-129841666D01*
X176534000Y-129817857D01*
X176510190Y-129770238D01*
X176510190Y-129675000D01*
X176534000Y-129627380D01*
X176557809Y-129603571D01*
X176605428Y-129579761D01*
X176629238Y-129579761D01*
X176676857Y-129603571D01*
X176700666Y-129627380D01*
X176724476Y-129675000D01*
X176724476Y-129770238D01*
X176748285Y-129817857D01*
X176772095Y-129841666D01*
X176819714Y-129865476D01*
X176914952Y-129865476D01*
X176962571Y-129841666D01*
X176986380Y-129817857D01*
X177010190Y-129770238D01*
X177010190Y-129675000D01*
X176986380Y-129627380D01*
X176962571Y-129603571D01*
X176914952Y-129579761D01*
X176819714Y-129579761D01*
X176772095Y-129603571D01*
X176748285Y-129627380D01*
X176724476Y-129675000D01*
X176986380Y-125690238D02*
X177010190Y-125618809D01*
X177010190Y-125499761D01*
X176986380Y-125452142D01*
X176962571Y-125428333D01*
X176914952Y-125404523D01*
X176867333Y-125404523D01*
X176819714Y-125428333D01*
X176795904Y-125452142D01*
X176772095Y-125499761D01*
X176748285Y-125595000D01*
X176724476Y-125642619D01*
X176700666Y-125666428D01*
X176653047Y-125690238D01*
X176605428Y-125690238D01*
X176557809Y-125666428D01*
X176534000Y-125642619D01*
X176510190Y-125595000D01*
X176510190Y-125475952D01*
X176534000Y-125404523D01*
X176962571Y-124904523D02*
X176986380Y-124928333D01*
X177010190Y-124999761D01*
X177010190Y-125047380D01*
X176986380Y-125118809D01*
X176938761Y-125166428D01*
X176891142Y-125190238D01*
X176795904Y-125214047D01*
X176724476Y-125214047D01*
X176629238Y-125190238D01*
X176581619Y-125166428D01*
X176534000Y-125118809D01*
X176510190Y-125047380D01*
X176510190Y-124999761D01*
X176534000Y-124928333D01*
X176557809Y-124904523D01*
X177010190Y-124452142D02*
X177010190Y-124690238D01*
X176510190Y-124690238D01*
X176986380Y-122908142D02*
X177010190Y-122836714D01*
X177010190Y-122717666D01*
X176986380Y-122670047D01*
X176962571Y-122646238D01*
X176914952Y-122622428D01*
X176867333Y-122622428D01*
X176819714Y-122646238D01*
X176795904Y-122670047D01*
X176772095Y-122717666D01*
X176748285Y-122812904D01*
X176724476Y-122860523D01*
X176700666Y-122884333D01*
X176653047Y-122908142D01*
X176605428Y-122908142D01*
X176557809Y-122884333D01*
X176534000Y-122860523D01*
X176510190Y-122812904D01*
X176510190Y-122693857D01*
X176534000Y-122622428D01*
X177010190Y-122408142D02*
X176510190Y-122408142D01*
X176510190Y-122289095D01*
X176534000Y-122217666D01*
X176581619Y-122170047D01*
X176629238Y-122146238D01*
X176724476Y-122122428D01*
X176795904Y-122122428D01*
X176891142Y-122146238D01*
X176938761Y-122170047D01*
X176986380Y-122217666D01*
X177010190Y-122289095D01*
X177010190Y-122408142D01*
X176867333Y-121931952D02*
X176867333Y-121693857D01*
X177010190Y-121979571D02*
X176510190Y-121812904D01*
X177010190Y-121646238D01*
X159316333Y-130544047D02*
X159316333Y-130305952D01*
X159459190Y-130591666D02*
X158959190Y-130425000D01*
X159459190Y-130258333D01*
X159459190Y-130091666D02*
X158959190Y-130091666D01*
X158959190Y-129972619D01*
X158983000Y-129901190D01*
X159030619Y-129853571D01*
X159078238Y-129829761D01*
X159173476Y-129805952D01*
X159244904Y-129805952D01*
X159340142Y-129829761D01*
X159387761Y-129853571D01*
X159435380Y-129901190D01*
X159459190Y-129972619D01*
X159459190Y-130091666D01*
D12*
X137359428Y-132965000D02*
X138073714Y-132965000D01*
X137216571Y-133393571D02*
X137716571Y-131893571D01*
X138216571Y-133393571D01*
X138716571Y-133393571D02*
X138716571Y-132393571D01*
X138716571Y-132679285D02*
X138788000Y-132536428D01*
X138859428Y-132465000D01*
X139002285Y-132393571D01*
X139145142Y-132393571D01*
X140288000Y-133393571D02*
X140288000Y-131893571D01*
X140288000Y-133322142D02*
X140145142Y-133393571D01*
X139859428Y-133393571D01*
X139716571Y-133322142D01*
X139645142Y-133250714D01*
X139573714Y-133107857D01*
X139573714Y-132679285D01*
X139645142Y-132536428D01*
X139716571Y-132465000D01*
X139859428Y-132393571D01*
X140145142Y-132393571D01*
X140288000Y-132465000D01*
X141645142Y-132393571D02*
X141645142Y-133393571D01*
X141002285Y-132393571D02*
X141002285Y-133179285D01*
X141073714Y-133322142D01*
X141216571Y-133393571D01*
X141430857Y-133393571D01*
X141573714Y-133322142D01*
X141645142Y-133250714D01*
X142359428Y-133393571D02*
X142359428Y-132393571D01*
X142359428Y-131893571D02*
X142288000Y-131965000D01*
X142359428Y-132036428D01*
X142430857Y-131965000D01*
X142359428Y-131893571D01*
X142359428Y-132036428D01*
X143073714Y-132393571D02*
X143073714Y-133393571D01*
X143073714Y-132536428D02*
X143145142Y-132465000D01*
X143288000Y-132393571D01*
X143502285Y-132393571D01*
X143645142Y-132465000D01*
X143716571Y-132607857D01*
X143716571Y-133393571D01*
X144645142Y-133393571D02*
X144502285Y-133322142D01*
X144430857Y-133250714D01*
X144359428Y-133107857D01*
X144359428Y-132679285D01*
X144430857Y-132536428D01*
X144502285Y-132465000D01*
X144645142Y-132393571D01*
X144859428Y-132393571D01*
X145002285Y-132465000D01*
X145073714Y-132536428D01*
X145145142Y-132679285D01*
X145145142Y-133107857D01*
X145073714Y-133250714D01*
X145002285Y-133322142D01*
X144859428Y-133393571D01*
X144645142Y-133393571D01*
X146859428Y-133322142D02*
X147073714Y-133393571D01*
X147430857Y-133393571D01*
X147573714Y-133322142D01*
X147645142Y-133250714D01*
X147716571Y-133107857D01*
X147716571Y-132965000D01*
X147645142Y-132822142D01*
X147573714Y-132750714D01*
X147430857Y-132679285D01*
X147145142Y-132607857D01*
X147002285Y-132536428D01*
X146930857Y-132465000D01*
X146859428Y-132322142D01*
X146859428Y-132179285D01*
X146930857Y-132036428D01*
X147002285Y-131965000D01*
X147145142Y-131893571D01*
X147502285Y-131893571D01*
X147716571Y-131965000D01*
X148359428Y-133393571D02*
X148359428Y-131893571D01*
X149002285Y-133393571D02*
X149002285Y-132607857D01*
X148930857Y-132465000D01*
X148788000Y-132393571D01*
X148573714Y-132393571D01*
X148430857Y-132465000D01*
X148359428Y-132536428D01*
X149716571Y-133393571D02*
X149716571Y-132393571D01*
X149716571Y-131893571D02*
X149645142Y-131965000D01*
X149716571Y-132036428D01*
X149788000Y-131965000D01*
X149716571Y-131893571D01*
X149716571Y-132036428D01*
X151002285Y-133322142D02*
X150859428Y-133393571D01*
X150573714Y-133393571D01*
X150430857Y-133322142D01*
X150359428Y-133179285D01*
X150359428Y-132607857D01*
X150430857Y-132465000D01*
X150573714Y-132393571D01*
X150859428Y-132393571D01*
X151002285Y-132465000D01*
X151073714Y-132607857D01*
X151073714Y-132750714D01*
X150359428Y-132893571D01*
X151930857Y-133393571D02*
X151788000Y-133322142D01*
X151716571Y-133179285D01*
X151716571Y-131893571D01*
X153145142Y-133393571D02*
X153145142Y-131893571D01*
X153145142Y-133322142D02*
X153002285Y-133393571D01*
X152716571Y-133393571D01*
X152573714Y-133322142D01*
X152502285Y-133250714D01*
X152430857Y-133107857D01*
X152430857Y-132679285D01*
X152502285Y-132536428D01*
X152573714Y-132465000D01*
X152716571Y-132393571D01*
X153002285Y-132393571D01*
X153145142Y-132465000D01*
X137319714Y-135933571D02*
X137319714Y-134433571D01*
X137676857Y-134433571D01*
X137891142Y-134505000D01*
X138034000Y-134647857D01*
X138105428Y-134790714D01*
X138176857Y-135076428D01*
X138176857Y-135290714D01*
X138105428Y-135576428D01*
X138034000Y-135719285D01*
X137891142Y-135862142D01*
X137676857Y-135933571D01*
X137319714Y-135933571D01*
X138676857Y-134933571D02*
X139034000Y-135933571D01*
X139391142Y-134933571D02*
X139034000Y-135933571D01*
X138891142Y-136290714D01*
X138819714Y-136362142D01*
X138676857Y-136433571D01*
X140176857Y-135933571D02*
X140034000Y-135862142D01*
X139962571Y-135719285D01*
X139962571Y-134433571D01*
X141391142Y-135933571D02*
X141391142Y-135147857D01*
X141319714Y-135005000D01*
X141176857Y-134933571D01*
X140891142Y-134933571D01*
X140748285Y-135005000D01*
X141391142Y-135862142D02*
X141248285Y-135933571D01*
X140891142Y-135933571D01*
X140748285Y-135862142D01*
X140676857Y-135719285D01*
X140676857Y-135576428D01*
X140748285Y-135433571D01*
X140891142Y-135362142D01*
X141248285Y-135362142D01*
X141391142Y-135290714D01*
X142105428Y-134933571D02*
X142105428Y-135933571D01*
X142105428Y-135076428D02*
X142176857Y-135005000D01*
X142319714Y-134933571D01*
X142534000Y-134933571D01*
X142676857Y-135005000D01*
X142748285Y-135147857D01*
X142748285Y-135933571D01*
X145462571Y-135790714D02*
X145391142Y-135862142D01*
X145176857Y-135933571D01*
X145034000Y-135933571D01*
X144819714Y-135862142D01*
X144676857Y-135719285D01*
X144605428Y-135576428D01*
X144534000Y-135290714D01*
X144534000Y-135076428D01*
X144605428Y-134790714D01*
X144676857Y-134647857D01*
X144819714Y-134505000D01*
X145034000Y-134433571D01*
X145176857Y-134433571D01*
X145391142Y-134505000D01*
X145462571Y-134576428D01*
X146748285Y-135933571D02*
X146748285Y-135147857D01*
X146676857Y-135005000D01*
X146534000Y-134933571D01*
X146248285Y-134933571D01*
X146105428Y-135005000D01*
X146748285Y-135862142D02*
X146605428Y-135933571D01*
X146248285Y-135933571D01*
X146105428Y-135862142D01*
X146034000Y-135719285D01*
X146034000Y-135576428D01*
X146105428Y-135433571D01*
X146248285Y-135362142D01*
X146605428Y-135362142D01*
X146748285Y-135290714D01*
X147319714Y-134933571D02*
X148105428Y-134933571D01*
X147319714Y-135933571D01*
X148105428Y-135933571D01*
X149319714Y-135933571D02*
X149319714Y-135147857D01*
X149248285Y-135005000D01*
X149105428Y-134933571D01*
X148819714Y-134933571D01*
X148676857Y-135005000D01*
X149319714Y-135862142D02*
X149176857Y-135933571D01*
X148819714Y-135933571D01*
X148676857Y-135862142D01*
X148605428Y-135719285D01*
X148605428Y-135576428D01*
X148676857Y-135433571D01*
X148819714Y-135362142D01*
X149176857Y-135362142D01*
X149319714Y-135290714D01*
X150034000Y-135933571D02*
X150034000Y-134933571D01*
X150034000Y-135219285D02*
X150105428Y-135076428D01*
X150176857Y-135005000D01*
X150319714Y-134933571D01*
X150462571Y-134933571D01*
X151534000Y-135862142D02*
X151391142Y-135933571D01*
X151105428Y-135933571D01*
X150962571Y-135862142D01*
X150891142Y-135719285D01*
X150891142Y-135147857D01*
X150962571Y-135005000D01*
X151105428Y-134933571D01*
X151391142Y-134933571D01*
X151534000Y-135005000D01*
X151605428Y-135147857D01*
X151605428Y-135290714D01*
X150891142Y-135433571D01*
X152176857Y-135862142D02*
X152319714Y-135933571D01*
X152605428Y-135933571D01*
X152748285Y-135862142D01*
X152819714Y-135719285D01*
X152819714Y-135647857D01*
X152748285Y-135505000D01*
X152605428Y-135433571D01*
X152391142Y-135433571D01*
X152248285Y-135362142D01*
X152176857Y-135219285D01*
X152176857Y-135147857D01*
X152248285Y-135005000D01*
X152391142Y-134933571D01*
X152605428Y-134933571D01*
X152748285Y-135005000D01*
D10*
X177010190Y-120467380D02*
X176510190Y-120467380D01*
X177010190Y-120229285D02*
X176510190Y-120229285D01*
X177010190Y-119943571D01*
X176510190Y-119943571D01*
X176510190Y-119776904D02*
X176510190Y-119491190D01*
X177010190Y-119634047D02*
X176510190Y-119634047D01*
D11*
G04 #@! TO.C,PORT1*
X178760380Y-103107857D02*
X177760380Y-103107857D01*
X177760380Y-102726904D01*
X177808000Y-102631666D01*
X177855619Y-102584047D01*
X177950857Y-102536428D01*
X178093714Y-102536428D01*
X178188952Y-102584047D01*
X178236571Y-102631666D01*
X178284190Y-102726904D01*
X178284190Y-103107857D01*
X177760380Y-101917380D02*
X177760380Y-101726904D01*
X177808000Y-101631666D01*
X177903238Y-101536428D01*
X178093714Y-101488809D01*
X178427047Y-101488809D01*
X178617523Y-101536428D01*
X178712761Y-101631666D01*
X178760380Y-101726904D01*
X178760380Y-101917380D01*
X178712761Y-102012619D01*
X178617523Y-102107857D01*
X178427047Y-102155476D01*
X178093714Y-102155476D01*
X177903238Y-102107857D01*
X177808000Y-102012619D01*
X177760380Y-101917380D01*
X178760380Y-100488809D02*
X178284190Y-100822142D01*
X178760380Y-101060238D02*
X177760380Y-101060238D01*
X177760380Y-100679285D01*
X177808000Y-100584047D01*
X177855619Y-100536428D01*
X177950857Y-100488809D01*
X178093714Y-100488809D01*
X178188952Y-100536428D01*
X178236571Y-100584047D01*
X178284190Y-100679285D01*
X178284190Y-101060238D01*
X177760380Y-100203095D02*
X177760380Y-99631666D01*
X178760380Y-99917380D02*
X177760380Y-99917380D01*
X178760380Y-98774523D02*
X178760380Y-99345952D01*
X178760380Y-99060238D02*
X177760380Y-99060238D01*
X177903238Y-99155476D01*
X177998476Y-99250714D01*
X178046095Y-99345952D01*
G04 #@! TO.C,PORT2*
X178760380Y-82533857D02*
X177760380Y-82533857D01*
X177760380Y-82152904D01*
X177808000Y-82057666D01*
X177855619Y-82010047D01*
X177950857Y-81962428D01*
X178093714Y-81962428D01*
X178188952Y-82010047D01*
X178236571Y-82057666D01*
X178284190Y-82152904D01*
X178284190Y-82533857D01*
X177760380Y-81343380D02*
X177760380Y-81152904D01*
X177808000Y-81057666D01*
X177903238Y-80962428D01*
X178093714Y-80914809D01*
X178427047Y-80914809D01*
X178617523Y-80962428D01*
X178712761Y-81057666D01*
X178760380Y-81152904D01*
X178760380Y-81343380D01*
X178712761Y-81438619D01*
X178617523Y-81533857D01*
X178427047Y-81581476D01*
X178093714Y-81581476D01*
X177903238Y-81533857D01*
X177808000Y-81438619D01*
X177760380Y-81343380D01*
X178760380Y-79914809D02*
X178284190Y-80248142D01*
X178760380Y-80486238D02*
X177760380Y-80486238D01*
X177760380Y-80105285D01*
X177808000Y-80010047D01*
X177855619Y-79962428D01*
X177950857Y-79914809D01*
X178093714Y-79914809D01*
X178188952Y-79962428D01*
X178236571Y-80010047D01*
X178284190Y-80105285D01*
X178284190Y-80486238D01*
X177760380Y-79629095D02*
X177760380Y-79057666D01*
X178760380Y-79343380D02*
X177760380Y-79343380D01*
X177855619Y-78771952D02*
X177808000Y-78724333D01*
X177760380Y-78629095D01*
X177760380Y-78391000D01*
X177808000Y-78295761D01*
X177855619Y-78248142D01*
X177950857Y-78200523D01*
X178046095Y-78200523D01*
X178188952Y-78248142D01*
X178760380Y-78819571D01*
X178760380Y-78200523D01*
G04 #@! TO.C,PORT3*
X135834380Y-109711857D02*
X134834380Y-109711857D01*
X134834380Y-109330904D01*
X134882000Y-109235666D01*
X134929619Y-109188047D01*
X135024857Y-109140428D01*
X135167714Y-109140428D01*
X135262952Y-109188047D01*
X135310571Y-109235666D01*
X135358190Y-109330904D01*
X135358190Y-109711857D01*
X134834380Y-108521380D02*
X134834380Y-108330904D01*
X134882000Y-108235666D01*
X134977238Y-108140428D01*
X135167714Y-108092809D01*
X135501047Y-108092809D01*
X135691523Y-108140428D01*
X135786761Y-108235666D01*
X135834380Y-108330904D01*
X135834380Y-108521380D01*
X135786761Y-108616619D01*
X135691523Y-108711857D01*
X135501047Y-108759476D01*
X135167714Y-108759476D01*
X134977238Y-108711857D01*
X134882000Y-108616619D01*
X134834380Y-108521380D01*
X135834380Y-107092809D02*
X135358190Y-107426142D01*
X135834380Y-107664238D02*
X134834380Y-107664238D01*
X134834380Y-107283285D01*
X134882000Y-107188047D01*
X134929619Y-107140428D01*
X135024857Y-107092809D01*
X135167714Y-107092809D01*
X135262952Y-107140428D01*
X135310571Y-107188047D01*
X135358190Y-107283285D01*
X135358190Y-107664238D01*
X134834380Y-106807095D02*
X134834380Y-106235666D01*
X135834380Y-106521380D02*
X134834380Y-106521380D01*
X134834380Y-105997571D02*
X134834380Y-105378523D01*
X135215333Y-105711857D01*
X135215333Y-105569000D01*
X135262952Y-105473761D01*
X135310571Y-105426142D01*
X135405809Y-105378523D01*
X135643904Y-105378523D01*
X135739142Y-105426142D01*
X135786761Y-105473761D01*
X135834380Y-105569000D01*
X135834380Y-105854714D01*
X135786761Y-105949952D01*
X135739142Y-105997571D01*
G04 #@! TO.C,PORT4*
X135580380Y-84057857D02*
X134580380Y-84057857D01*
X134580380Y-83676904D01*
X134628000Y-83581666D01*
X134675619Y-83534047D01*
X134770857Y-83486428D01*
X134913714Y-83486428D01*
X135008952Y-83534047D01*
X135056571Y-83581666D01*
X135104190Y-83676904D01*
X135104190Y-84057857D01*
X134580380Y-82867380D02*
X134580380Y-82676904D01*
X134628000Y-82581666D01*
X134723238Y-82486428D01*
X134913714Y-82438809D01*
X135247047Y-82438809D01*
X135437523Y-82486428D01*
X135532761Y-82581666D01*
X135580380Y-82676904D01*
X135580380Y-82867380D01*
X135532761Y-82962619D01*
X135437523Y-83057857D01*
X135247047Y-83105476D01*
X134913714Y-83105476D01*
X134723238Y-83057857D01*
X134628000Y-82962619D01*
X134580380Y-82867380D01*
X135580380Y-81438809D02*
X135104190Y-81772142D01*
X135580380Y-82010238D02*
X134580380Y-82010238D01*
X134580380Y-81629285D01*
X134628000Y-81534047D01*
X134675619Y-81486428D01*
X134770857Y-81438809D01*
X134913714Y-81438809D01*
X135008952Y-81486428D01*
X135056571Y-81534047D01*
X135104190Y-81629285D01*
X135104190Y-82010238D01*
X134580380Y-81153095D02*
X134580380Y-80581666D01*
X135580380Y-80867380D02*
X134580380Y-80867380D01*
X134913714Y-79819761D02*
X135580380Y-79819761D01*
X134532761Y-80057857D02*
X135247047Y-80295952D01*
X135247047Y-79676904D01*
G04 #@! TO.C,VR1*
X142704867Y-89823661D02*
X143039119Y-90826417D01*
X143373371Y-89823661D01*
X144280626Y-90826417D02*
X143946374Y-90348914D01*
X143707623Y-90826417D02*
X143707623Y-89823661D01*
X144089625Y-89823661D01*
X144185126Y-89871412D01*
X144232876Y-89919162D01*
X144280626Y-90014662D01*
X144280626Y-90157913D01*
X144232876Y-90253414D01*
X144185126Y-90301164D01*
X144089625Y-90348914D01*
X143707623Y-90348914D01*
X145235632Y-90826417D02*
X144662628Y-90826417D01*
X144949130Y-90826417D02*
X144949130Y-89823661D01*
X144853630Y-89966912D01*
X144758129Y-90062413D01*
X144662628Y-90110163D01*
D13*
G04 #@! TO.C,C1*
X143712383Y-92415607D02*
X143693635Y-92434355D01*
X143637392Y-92453102D01*
X143599897Y-92453102D01*
X143543654Y-92434355D01*
X143506158Y-92396859D01*
X143487411Y-92359364D01*
X143468663Y-92284373D01*
X143468663Y-92228130D01*
X143487411Y-92153140D01*
X143506158Y-92115644D01*
X143543654Y-92078149D01*
X143599897Y-92059401D01*
X143637392Y-92059401D01*
X143693635Y-92078149D01*
X143712383Y-92096897D01*
X144087336Y-92453102D02*
X143862364Y-92453102D01*
X143974850Y-92453102D02*
X143974850Y-92059401D01*
X143937355Y-92115644D01*
X143899859Y-92153140D01*
X143862364Y-92171887D01*
G04 #@! TO.C,R1*
X169092383Y-97503102D02*
X168961149Y-97315626D01*
X168867411Y-97503102D02*
X168867411Y-97109401D01*
X169017392Y-97109401D01*
X169054887Y-97128149D01*
X169073635Y-97146897D01*
X169092383Y-97184392D01*
X169092383Y-97240635D01*
X169073635Y-97278130D01*
X169054887Y-97296878D01*
X169017392Y-97315626D01*
X168867411Y-97315626D01*
X169467336Y-97503102D02*
X169242364Y-97503102D01*
X169354850Y-97503102D02*
X169354850Y-97109401D01*
X169317355Y-97165644D01*
X169279859Y-97203140D01*
X169242364Y-97221887D01*
D11*
G04 #@! TO.C,D2*
X158518085Y-101418496D02*
X158518085Y-100416031D01*
X158756767Y-100416031D01*
X158899976Y-100463767D01*
X158995449Y-100559240D01*
X159043186Y-100654713D01*
X159090922Y-100845658D01*
X159090922Y-100988868D01*
X159043186Y-101179813D01*
X158995449Y-101275286D01*
X158899976Y-101370759D01*
X158756767Y-101418496D01*
X158518085Y-101418496D01*
X159472813Y-100511503D02*
X159520550Y-100463767D01*
X159616023Y-100416031D01*
X159854705Y-100416031D01*
X159950178Y-100463767D01*
X159997914Y-100511503D01*
X160045651Y-100606976D01*
X160045651Y-100702449D01*
X159997914Y-100845658D01*
X159425077Y-101418496D01*
X160045651Y-101418496D01*
G04 #@! TO.C,J2*
X161439666Y-134937380D02*
X161439666Y-135651666D01*
X161392047Y-135794523D01*
X161296809Y-135889761D01*
X161153952Y-135937380D01*
X161058714Y-135937380D01*
X161868238Y-135032619D02*
X161915857Y-134985000D01*
X162011095Y-134937380D01*
X162249190Y-134937380D01*
X162344428Y-134985000D01*
X162392047Y-135032619D01*
X162439666Y-135127857D01*
X162439666Y-135223095D01*
X162392047Y-135365952D01*
X161820619Y-135937380D01*
X162439666Y-135937380D01*
G04 #@! TO.C,D1*
X158518085Y-98878496D02*
X158518085Y-97876031D01*
X158756767Y-97876031D01*
X158899976Y-97923767D01*
X158995449Y-98019240D01*
X159043186Y-98114713D01*
X159090922Y-98305658D01*
X159090922Y-98448868D01*
X159043186Y-98639813D01*
X158995449Y-98735286D01*
X158899976Y-98830759D01*
X158756767Y-98878496D01*
X158518085Y-98878496D01*
X160045651Y-98878496D02*
X159472813Y-98878496D01*
X159759232Y-98878496D02*
X159759232Y-97876031D01*
X159663759Y-98019240D01*
X159568286Y-98114713D01*
X159472813Y-98162449D01*
D13*
G04 #@! TO.C,R2*
X169092383Y-100043102D02*
X168961149Y-99855626D01*
X168867411Y-100043102D02*
X168867411Y-99649401D01*
X169017392Y-99649401D01*
X169054887Y-99668149D01*
X169073635Y-99686897D01*
X169092383Y-99724392D01*
X169092383Y-99780635D01*
X169073635Y-99818130D01*
X169054887Y-99836878D01*
X169017392Y-99855626D01*
X168867411Y-99855626D01*
X169242364Y-99686897D02*
X169261112Y-99668149D01*
X169298607Y-99649401D01*
X169392345Y-99649401D01*
X169429841Y-99668149D01*
X169448588Y-99686897D01*
X169467336Y-99724392D01*
X169467336Y-99761887D01*
X169448588Y-99818130D01*
X169223616Y-100043102D01*
X169467336Y-100043102D01*
D11*
G04 #@! TO.C,S2*
X156598380Y-79230447D02*
X156689809Y-79260923D01*
X156842190Y-79260923D01*
X156903142Y-79230447D01*
X156933619Y-79199971D01*
X156964095Y-79139019D01*
X156964095Y-79078066D01*
X156933619Y-79017114D01*
X156903142Y-78986638D01*
X156842190Y-78956161D01*
X156720285Y-78925685D01*
X156659333Y-78895209D01*
X156628857Y-78864733D01*
X156598380Y-78803780D01*
X156598380Y-78742828D01*
X156628857Y-78681876D01*
X156659333Y-78651400D01*
X156720285Y-78620923D01*
X156872666Y-78620923D01*
X156964095Y-78651400D01*
X157207904Y-78681876D02*
X157238380Y-78651400D01*
X157299333Y-78620923D01*
X157451714Y-78620923D01*
X157512666Y-78651400D01*
X157543142Y-78681876D01*
X157573619Y-78742828D01*
X157573619Y-78803780D01*
X157543142Y-78895209D01*
X157177428Y-79260923D01*
X157573619Y-79260923D01*
G04 #@! TO.C,J1*
X174139666Y-134937380D02*
X174139666Y-135651666D01*
X174092047Y-135794523D01*
X173996809Y-135889761D01*
X173853952Y-135937380D01*
X173758714Y-135937380D01*
X175139666Y-135937380D02*
X174568238Y-135937380D01*
X174853952Y-135937380D02*
X174853952Y-134937380D01*
X174758714Y-135080238D01*
X174663476Y-135175476D01*
X174568238Y-135223095D01*
G04 #@! TO.C,S1*
X166758380Y-79230447D02*
X166849809Y-79260923D01*
X167002190Y-79260923D01*
X167063142Y-79230447D01*
X167093619Y-79199971D01*
X167124095Y-79139019D01*
X167124095Y-79078066D01*
X167093619Y-79017114D01*
X167063142Y-78986638D01*
X167002190Y-78956161D01*
X166880285Y-78925685D01*
X166819333Y-78895209D01*
X166788857Y-78864733D01*
X166758380Y-78803780D01*
X166758380Y-78742828D01*
X166788857Y-78681876D01*
X166819333Y-78651400D01*
X166880285Y-78620923D01*
X167032666Y-78620923D01*
X167124095Y-78651400D01*
X167733619Y-79260923D02*
X167367904Y-79260923D01*
X167550761Y-79260923D02*
X167550761Y-78620923D01*
X167489809Y-78712352D01*
X167428857Y-78773304D01*
X167367904Y-78803780D01*
G04 #@! TO.C,PORT1*
X182118000Y-90805000D02*
X179578000Y-90805000D01*
X182118000Y-108585000D02*
X182118000Y-90805000D01*
X179578000Y-90805000D02*
X179578000Y-108585000D01*
X179298000Y-109855000D02*
X179298000Y-111405000D01*
X179298000Y-111405000D02*
X182398000Y-111405000D01*
X182398000Y-111405000D02*
X182398000Y-109855000D01*
X182118000Y-108585000D02*
X179578000Y-108585000D01*
G04 #@! TO.C,PORT2*
X182118000Y-85725000D02*
X179578000Y-85725000D01*
X179298000Y-86995000D02*
X179298000Y-88545000D01*
X179578000Y-73025000D02*
X179578000Y-85725000D01*
X182118000Y-85725000D02*
X182118000Y-73025000D01*
X182118000Y-73025000D02*
X179578000Y-73025000D01*
X179298000Y-88545000D02*
X182398000Y-88545000D01*
X182398000Y-88545000D02*
X182398000Y-86995000D01*
G04 #@! TO.C,PORT3*
X131038000Y-120549000D02*
X134138000Y-120549000D01*
X133858000Y-117729000D02*
X133858000Y-94869000D01*
X133858000Y-94869000D02*
X131318000Y-94869000D01*
X131318000Y-94869000D02*
X131318000Y-117729000D01*
X131038000Y-118999000D02*
X131038000Y-120549000D01*
X134138000Y-120549000D02*
X134138000Y-118999000D01*
X133858000Y-117729000D02*
X131318000Y-117729000D01*
G04 #@! TO.C,PORT4*
X131318000Y-73025000D02*
X131318000Y-90805000D01*
X134138000Y-93625000D02*
X134138000Y-92075000D01*
X133858000Y-90805000D02*
X133858000Y-73025000D01*
X133858000Y-90805000D02*
X131318000Y-90805000D01*
X131038000Y-92075000D02*
X131038000Y-93625000D01*
X133858000Y-73025000D02*
X131318000Y-73025000D01*
X131038000Y-93625000D02*
X134138000Y-93625000D01*
G04 #@! TO.C,P5*
X183134000Y-114935000D02*
G75*
G03*
X183134000Y-114935000I-2286000J0D01*
G01*
G04 #@! TO.C,P6*
X178054000Y-71755000D02*
G75*
G03*
X178054000Y-71755000I-2286000J0D01*
G01*
G04 #@! TO.C,P7*
X134874000Y-125095000D02*
G75*
G03*
X134874000Y-125095000I-2286000J0D01*
G01*
G04 #@! TO.C,P8*
X150114000Y-71755000D02*
G75*
G03*
X150114000Y-71755000I-2286000J0D01*
G01*
D14*
G04 #@! TO.C,VR1*
X147318000Y-87030000D02*
X147318000Y-89195000D01*
X140718000Y-82195000D02*
X147318000Y-82195000D01*
X140718000Y-84490000D02*
X140718000Y-82205000D01*
X147318000Y-89195000D02*
X140718000Y-89195000D01*
X147318000Y-82205000D02*
X147318000Y-84490000D01*
X140718000Y-89195000D02*
X140718000Y-87030000D01*
D15*
X148182000Y-85725000D02*
G75*
G03*
X148182000Y-85725000I-100000J0D01*
G01*
D16*
G04 #@! TO.C,J2*
X160443000Y-134045000D02*
X160443000Y-132715000D01*
X163103000Y-118685000D02*
X160443000Y-118685000D01*
X161773000Y-134045000D02*
X160443000Y-134045000D01*
X163103000Y-131445000D02*
X163103000Y-118685000D01*
X163103000Y-131445000D02*
X160443000Y-131445000D01*
X160443000Y-131445000D02*
X160443000Y-118685000D01*
G04 #@! TO.C,G\u002A\u002A\u002A*
G36*
X146183047Y-123464500D02*
G01*
X146168233Y-123802000D01*
X145977918Y-123817663D01*
X145833288Y-123847791D01*
X145757812Y-123917239D01*
X145746404Y-123942663D01*
X145734968Y-124018997D01*
X145722602Y-124181883D01*
X145709918Y-124417887D01*
X145697524Y-124713574D01*
X145686032Y-125055508D01*
X145676050Y-125430254D01*
X145673336Y-125552000D01*
X145663689Y-125984666D01*
X145652858Y-126434147D01*
X145641468Y-126876819D01*
X145630148Y-127289059D01*
X145619522Y-127647241D01*
X145610693Y-127914500D01*
X145579918Y-128777000D01*
X145222794Y-128776420D01*
X144865669Y-128775840D01*
X144522093Y-127813920D01*
X144397530Y-127464738D01*
X144251044Y-127053398D01*
X144094067Y-126612039D01*
X143938029Y-126172802D01*
X143794358Y-125767827D01*
X143772845Y-125707124D01*
X143640375Y-125337364D01*
X143535909Y-125055775D01*
X143456489Y-124855420D01*
X143399155Y-124729364D01*
X143360946Y-124670673D01*
X143338903Y-124672411D01*
X143335397Y-124682124D01*
X143325128Y-124768349D01*
X143315020Y-124939436D01*
X143305306Y-125180245D01*
X143296219Y-125475638D01*
X143287992Y-125810477D01*
X143280857Y-126169621D01*
X143275049Y-126537934D01*
X143270800Y-126900275D01*
X143268343Y-127241506D01*
X143267912Y-127546489D01*
X143269739Y-127800085D01*
X143274058Y-127987155D01*
X143281101Y-128092560D01*
X143282743Y-128102000D01*
X143310037Y-128192711D01*
X143359406Y-128235350D01*
X143461301Y-128245958D01*
X143552137Y-128243904D01*
X143788549Y-128235809D01*
X143788549Y-128916044D01*
X143375235Y-129027345D01*
X143113225Y-129102485D01*
X142819953Y-129193493D01*
X142557916Y-129280959D01*
X142552618Y-129282822D01*
X142364910Y-129347835D01*
X142215200Y-129397616D01*
X142126994Y-129424434D01*
X142114255Y-129427000D01*
X142095695Y-129382790D01*
X142086121Y-129273181D01*
X142085747Y-129239500D01*
X142093953Y-128997149D01*
X142123468Y-128832063D01*
X142184185Y-128722156D01*
X142285995Y-128645343D01*
X142369190Y-128606666D01*
X142533830Y-128515841D01*
X142630461Y-128413907D01*
X142638042Y-128397376D01*
X142648496Y-128323258D01*
X142659779Y-128160389D01*
X142671480Y-127920009D01*
X142683188Y-127613358D01*
X142694490Y-127251678D01*
X142704977Y-126846209D01*
X142714236Y-126408192D01*
X142717540Y-126224283D01*
X142726597Y-125701161D01*
X142733476Y-125269503D01*
X142736985Y-124920776D01*
X142735929Y-124646450D01*
X142729114Y-124437993D01*
X142715345Y-124286872D01*
X142693429Y-124184556D01*
X142662171Y-124122514D01*
X142620377Y-124092213D01*
X142566853Y-124085123D01*
X142500404Y-124092711D01*
X142421070Y-124106250D01*
X142230909Y-124136562D01*
X142260541Y-123402000D01*
X142761527Y-123318464D01*
X143002325Y-123280326D01*
X143231778Y-123247465D01*
X143415218Y-123224701D01*
X143480794Y-123218464D01*
X143699075Y-123202000D01*
X143986269Y-124027000D01*
X144093914Y-124334352D01*
X144225035Y-124705798D01*
X144369003Y-125111402D01*
X144515189Y-125521231D01*
X144652965Y-125905349D01*
X144669763Y-125952000D01*
X145066064Y-127052000D01*
X145079330Y-125502487D01*
X145081859Y-125116704D01*
X145082705Y-124761925D01*
X145081955Y-124450836D01*
X145079693Y-124196118D01*
X145076008Y-124010457D01*
X145070984Y-123906535D01*
X145068377Y-123889987D01*
X145003882Y-123848566D01*
X144865523Y-123828109D01*
X144817143Y-123827000D01*
X144590127Y-123827000D01*
X144590127Y-123127000D01*
X146197860Y-123127000D01*
X146183047Y-123464500D01*
G37*
G36*
X146590731Y-123167506D02*
G01*
X146794423Y-123184969D01*
X147046117Y-123209756D01*
X147328670Y-123240196D01*
X147624939Y-123274621D01*
X147859062Y-123303747D01*
X148147129Y-123340768D01*
X148147129Y-124064716D01*
X147922871Y-124039488D01*
X147781612Y-124029389D01*
X147705876Y-124049059D01*
X147662498Y-124110997D01*
X147649811Y-124142369D01*
X147638358Y-124219146D01*
X147626139Y-124384544D01*
X147613594Y-124627192D01*
X147601163Y-124935717D01*
X147589287Y-125298749D01*
X147578405Y-125704915D01*
X147568957Y-126142844D01*
X147565903Y-126311238D01*
X147530798Y-128352000D01*
X147956678Y-128492966D01*
X148217457Y-128568365D01*
X148438940Y-128611297D01*
X148577960Y-128617966D01*
X148717592Y-128592289D01*
X148803071Y-128524417D01*
X148859083Y-128427000D01*
X148901631Y-128297979D01*
X148944738Y-128093520D01*
X148983797Y-127838047D01*
X149005256Y-127652000D01*
X149029482Y-127419047D01*
X149051029Y-127225618D01*
X149067583Y-127091565D01*
X149076833Y-127036741D01*
X149076941Y-127036570D01*
X149125252Y-127043971D01*
X149231695Y-127081417D01*
X149268933Y-127096519D01*
X149449693Y-127171897D01*
X149445979Y-128311948D01*
X149443426Y-128652586D01*
X149438347Y-128970986D01*
X149431234Y-129249625D01*
X149422576Y-129470982D01*
X149412865Y-129617535D01*
X149408405Y-129653681D01*
X149374545Y-129855363D01*
X148873559Y-129638394D01*
X148113600Y-129338387D01*
X147315355Y-129082227D01*
X146449761Y-128860607D01*
X146431251Y-128856393D01*
X146359183Y-128834991D01*
X146317989Y-128795951D01*
X146299045Y-128715428D01*
X146293726Y-128569573D01*
X146293480Y-128475456D01*
X146293480Y-128125818D01*
X146489094Y-128157036D01*
X146623889Y-128169044D01*
X146698926Y-128141773D01*
X146739886Y-128085355D01*
X146756842Y-128005873D01*
X146772693Y-127841288D01*
X146787260Y-127604783D01*
X146800364Y-127309537D01*
X146811826Y-126968731D01*
X146821467Y-126595548D01*
X146829107Y-126203168D01*
X146834567Y-125804772D01*
X146837669Y-125413540D01*
X146838232Y-125042655D01*
X146836077Y-124705298D01*
X146831025Y-124414648D01*
X146822898Y-124183888D01*
X146811515Y-124026198D01*
X146796698Y-123954760D01*
X146796063Y-123953921D01*
X146706628Y-123896000D01*
X146566924Y-123850846D01*
X146532093Y-123844304D01*
X146332831Y-123812503D01*
X146352981Y-123496671D01*
X146366761Y-123329991D01*
X146382725Y-123208364D01*
X146395929Y-123161231D01*
X146452185Y-123159036D01*
X146590731Y-123167506D01*
G37*
G36*
X149066136Y-123554240D02*
G01*
X149190914Y-123591004D01*
X149373987Y-123648372D01*
X149597153Y-123720306D01*
X149842211Y-123800766D01*
X150090960Y-123883714D01*
X150325201Y-123963113D01*
X150526732Y-124032923D01*
X150677352Y-124087106D01*
X150758861Y-124119624D01*
X150767530Y-124124608D01*
X150782661Y-124189435D01*
X150785751Y-124326115D01*
X150776395Y-124507180D01*
X150773619Y-124539507D01*
X150739387Y-124916530D01*
X150564629Y-124843655D01*
X150418388Y-124792659D01*
X150324004Y-124793342D01*
X150272847Y-124857224D01*
X150256288Y-124995825D01*
X150265696Y-125220665D01*
X150267164Y-125240746D01*
X150281723Y-125390192D01*
X150307739Y-125609566D01*
X150343333Y-125886139D01*
X150386625Y-126207180D01*
X150435736Y-126559957D01*
X150488784Y-126931740D01*
X150543891Y-127309798D01*
X150599175Y-127681399D01*
X150652758Y-128033813D01*
X150702759Y-128354309D01*
X150747297Y-128630156D01*
X150784494Y-128848623D01*
X150812469Y-128996979D01*
X150829342Y-129062493D01*
X150831794Y-129064286D01*
X150848098Y-129012169D01*
X150883287Y-128876742D01*
X150933998Y-128672196D01*
X150996868Y-128412723D01*
X151068535Y-128112517D01*
X151145635Y-127785770D01*
X151224806Y-127446674D01*
X151302685Y-127109423D01*
X151375909Y-126788208D01*
X151441116Y-126497223D01*
X151456014Y-126429758D01*
X151510946Y-126168231D01*
X151556638Y-125928058D01*
X151588889Y-125733028D01*
X151603498Y-125606927D01*
X151603933Y-125592258D01*
X151564336Y-125419173D01*
X151440068Y-125270807D01*
X151255907Y-125153375D01*
X151179885Y-125110112D01*
X151134447Y-125060903D01*
X151111725Y-124981171D01*
X151103849Y-124846342D01*
X151102947Y-124675715D01*
X151109353Y-124462349D01*
X151127549Y-124325631D01*
X151156007Y-124277002D01*
X151156262Y-124276999D01*
X151216768Y-124298625D01*
X151350398Y-124358478D01*
X151541188Y-124449024D01*
X151773171Y-124562730D01*
X151957840Y-124655263D01*
X152706103Y-125033527D01*
X152706103Y-125507022D01*
X152704979Y-125725858D01*
X152699075Y-125861219D01*
X152684595Y-125929629D01*
X152657743Y-125947609D01*
X152614722Y-125931680D01*
X152609199Y-125928759D01*
X152512683Y-125884022D01*
X152432448Y-125869375D01*
X152363720Y-125893908D01*
X152301726Y-125966712D01*
X152241690Y-126096877D01*
X152178838Y-126293496D01*
X152108397Y-126565658D01*
X152025592Y-126922456D01*
X151979931Y-127127000D01*
X151919570Y-127393757D01*
X151840210Y-127736121D01*
X151746934Y-128132632D01*
X151644825Y-128561828D01*
X151538964Y-129002247D01*
X151434434Y-129432428D01*
X151420468Y-129489500D01*
X151043890Y-131027000D01*
X150671057Y-131027000D01*
X150445534Y-131019038D01*
X150314838Y-130994717D01*
X150276251Y-130964500D01*
X150264586Y-130897497D01*
X150244878Y-130747109D01*
X150219030Y-130529457D01*
X150188944Y-130260662D01*
X150156525Y-129956843D01*
X150150828Y-129902000D01*
X150049080Y-128959670D01*
X149944312Y-128077590D01*
X149831593Y-127218629D01*
X149705996Y-126345652D01*
X149562590Y-125421528D01*
X149525324Y-125190158D01*
X149456931Y-124856661D01*
X149371677Y-124611141D01*
X149264063Y-124442219D01*
X149128591Y-124338518D01*
X149109471Y-124329595D01*
X148944595Y-124257190D01*
X148978222Y-123904595D01*
X148995531Y-123730267D01*
X149009585Y-123601743D01*
X149017549Y-123544824D01*
X149017852Y-123544118D01*
X149066136Y-123554240D01*
G37*
G36*
X142053926Y-123471228D02*
G01*
X142058950Y-123533171D01*
X142056380Y-123666083D01*
X142046773Y-123841261D01*
X142046701Y-123842306D01*
X142032164Y-124022602D01*
X142010648Y-124130121D01*
X141968273Y-124191849D01*
X141891161Y-124234774D01*
X141832553Y-124258692D01*
X141702621Y-124326648D01*
X141616675Y-124400897D01*
X141606241Y-124418385D01*
X141596859Y-124485361D01*
X141585217Y-124641124D01*
X141571847Y-124874496D01*
X141557278Y-125174302D01*
X141542044Y-125529367D01*
X141526676Y-125928514D01*
X141511705Y-126360569D01*
X141507147Y-126502000D01*
X141488382Y-127066859D01*
X141469818Y-127542730D01*
X141449848Y-127940608D01*
X141426864Y-128271488D01*
X141399262Y-128546365D01*
X141365433Y-128776235D01*
X141323772Y-128972092D01*
X141272671Y-129144931D01*
X141210524Y-129305749D01*
X141135724Y-129465541D01*
X141050266Y-129628651D01*
X140858177Y-129935690D01*
X140625343Y-130231912D01*
X140367120Y-130503493D01*
X140098863Y-130736607D01*
X139835925Y-130917431D01*
X139593661Y-131032139D01*
X139455396Y-131064601D01*
X139305790Y-131071642D01*
X139206282Y-131039593D01*
X139109605Y-130952953D01*
X139107288Y-130950463D01*
X139046752Y-130881262D01*
X138995669Y-130808990D01*
X138953238Y-130724939D01*
X138918660Y-130620403D01*
X138891136Y-130486673D01*
X138869865Y-130315043D01*
X138854049Y-130096805D01*
X138842887Y-129823252D01*
X138835580Y-129485677D01*
X138831328Y-129075371D01*
X138829331Y-128583629D01*
X138828790Y-128001742D01*
X138828785Y-127917924D01*
X138828630Y-127366873D01*
X138827952Y-126907508D01*
X138826438Y-126531516D01*
X138823771Y-126230585D01*
X138819638Y-125996401D01*
X138813722Y-125820651D01*
X138805710Y-125695022D01*
X138795285Y-125611201D01*
X138782133Y-125560874D01*
X138765938Y-125535728D01*
X138746385Y-125527451D01*
X138738164Y-125526999D01*
X138627187Y-125556231D01*
X138550294Y-125600409D01*
X138460893Y-125657962D01*
X138415472Y-125675409D01*
X138398387Y-125630033D01*
X138385365Y-125507680D01*
X138378477Y-125331355D01*
X138377898Y-125258122D01*
X138383824Y-125024271D01*
X138403213Y-124873977D01*
X138438478Y-124791404D01*
X138450991Y-124778701D01*
X138522225Y-124736607D01*
X138664414Y-124664870D01*
X138858938Y-124571874D01*
X139087180Y-124466003D01*
X139330524Y-124355642D01*
X139570351Y-124249174D01*
X139788045Y-124154985D01*
X139964987Y-124081458D01*
X140082560Y-124036978D01*
X140118825Y-124027602D01*
X140154016Y-124062753D01*
X140174302Y-124175855D01*
X140181398Y-124377130D01*
X140181448Y-124400983D01*
X140181448Y-124774967D01*
X139993578Y-124870663D01*
X139876417Y-124931783D01*
X139785779Y-124989820D01*
X139717810Y-125058053D01*
X139668656Y-125149759D01*
X139634465Y-125278218D01*
X139611381Y-125456707D01*
X139595552Y-125698505D01*
X139583124Y-126016891D01*
X139573597Y-126317795D01*
X139556476Y-126931130D01*
X139544412Y-127501266D01*
X139537380Y-128020548D01*
X139535351Y-128481319D01*
X139538299Y-128875925D01*
X139546196Y-129196709D01*
X139559016Y-129436015D01*
X139576731Y-129586188D01*
X139585271Y-129619840D01*
X139673283Y-129761443D01*
X139808585Y-129815834D01*
X139992220Y-129783222D01*
X140117804Y-129726375D01*
X140393732Y-129524489D01*
X140614497Y-129243161D01*
X140776258Y-128888832D01*
X140875176Y-128467947D01*
X140877465Y-128452000D01*
X140892236Y-128303181D01*
X140906180Y-128080747D01*
X140919089Y-127798317D01*
X140930751Y-127469509D01*
X140940959Y-127107941D01*
X140949503Y-126727230D01*
X140956173Y-126340995D01*
X140960759Y-125962854D01*
X140963053Y-125606425D01*
X140962845Y-125285327D01*
X140959925Y-125013177D01*
X140954083Y-124803593D01*
X140945111Y-124670193D01*
X140936276Y-124628445D01*
X140886368Y-124585126D01*
X140800048Y-124583053D01*
X140685157Y-124608998D01*
X140482040Y-124663106D01*
X140482040Y-123885036D01*
X140720008Y-123807687D01*
X140934289Y-123741369D01*
X141172841Y-123672883D01*
X141416260Y-123607124D01*
X141645144Y-123548986D01*
X141840090Y-123503363D01*
X141981694Y-123475148D01*
X142050554Y-123469237D01*
X142053926Y-123471228D01*
G37*
D14*
G04 #@! TO.C,S2*
X154268000Y-78285000D02*
X159168000Y-78285000D01*
X154268000Y-72845000D02*
X159168000Y-72845000D01*
D15*
X161468000Y-77465000D02*
G75*
G03*
X161468000Y-77465000I-100000J0D01*
G01*
D16*
G04 #@! TO.C,J1*
X175803000Y-118685000D02*
X173143000Y-118685000D01*
X175803000Y-131445000D02*
X175803000Y-118685000D01*
X173143000Y-131445000D02*
X173143000Y-118685000D01*
X173143000Y-134045000D02*
X173143000Y-132715000D01*
X174473000Y-134045000D02*
X173143000Y-134045000D01*
X175803000Y-131445000D02*
X173143000Y-131445000D01*
D14*
G04 #@! TO.C,S1*
X164428000Y-72845000D02*
X169328000Y-72845000D01*
X164428000Y-78285000D02*
X169328000Y-78285000D01*
D15*
X171628000Y-77465000D02*
G75*
G03*
X171628000Y-77465000I-100000J0D01*
G01*
G04 #@! TD*
D17*
G04 #@! TO.C,PORT1*
X180848000Y-109855000D03*
X180848000Y-107315000D03*
X180848000Y-104775000D03*
X180848000Y-102235000D03*
X180848000Y-99695000D03*
X180848000Y-97155000D03*
X180848000Y-94615000D03*
X180848000Y-92075000D03*
G04 #@! TD*
G04 #@! TO.C,PORT2*
X180848000Y-86995000D03*
X180848000Y-84455000D03*
X180848000Y-81915000D03*
X180848000Y-79375000D03*
X180848000Y-76835000D03*
X180848000Y-74295000D03*
G04 #@! TD*
G04 #@! TO.C,PORT3*
X132588000Y-118999000D03*
X132588000Y-116459000D03*
X132588000Y-113919000D03*
X132588000Y-111379000D03*
X132588000Y-108839000D03*
X132588000Y-106299000D03*
X132588000Y-103759000D03*
X132588000Y-101219000D03*
X132588000Y-98679000D03*
X132588000Y-96139000D03*
G04 #@! TD*
G04 #@! TO.C,PORT4*
X132588000Y-92075000D03*
X132588000Y-89535000D03*
X132588000Y-86995000D03*
X132588000Y-84455000D03*
X132588000Y-81915000D03*
X132588000Y-79375000D03*
X132588000Y-76835000D03*
X132588000Y-74295000D03*
G04 #@! TD*
D18*
G04 #@! TO.C,P5*
X180848000Y-114935000D03*
G04 #@! TD*
G04 #@! TO.C,P6*
X175768000Y-71755000D03*
G04 #@! TD*
G04 #@! TO.C,P7*
X132588000Y-125095000D03*
G04 #@! TD*
G04 #@! TO.C,P8*
X147828000Y-71755000D03*
G04 #@! TD*
M02*
